<?xml version="1.0" encoding="UTF-8"?>
<svg id="Calque_2" data-name="Calque 2" xmlns="http://www.w3.org/2000/svg" viewBox="0 0 167 132.54">
  <g id="header">
    <g id="logo">
      <path d="M76.36.05h47.21c20.98,0,35.62,10.37,36.6,31.96v2.44c0,12.69-5.25,21.96-14.03,27.33,15.25,6.83,20.86,21.59,20.86,34.16,0,25.98-15.49,36.6-35.26,36.6h-55.39V.05h0ZM112.84,17.25c0,.37-.12,1.59-.12,1.71,0,17.08-10,42.7-18.79,65.39-4.39,11.59-7.81,22.32-9.15,29.52-.61,3.78-.98,6.59-.98,8.66,0,1.59.12,2.93.37,4.27,1.46-22.93,22.08-49.29,28.42-57.58,7.81-10.37,18.3-18.79,18.3-37.33v-.73c0-11.22-4.03-18.91-11.35-22.45-2.81-1.46-5.98-2.2-9.52-2.2,2.44,5.25,2.81,9.15,2.81,10.74h.01ZM90.14,126.81h19.89c19.4,0,25.13-15.49,25.13-29.89,0-10.37-2.44-19.03-8.42-25.98-21.84,10.37-35.26,36.84-36.6,55.87Z"/>
      <path d="M60.64,3.54c-25.99,0-33.19,31.48-50.88,31.48-2.68,0-5.61-.85-8.91-2.44V0h76.99v132.51H0v-32.58c3.29-1.83,6.1-2.32,8.91-2.32,13.18,0,20.38,17.33,34.04,26.11-.12-.61-.12-1.34-.12-1.95v-1.83c0-4.88.85-11.96,3.42-21.35s6.1-19.28,9.88-29.53h-6.83c-13.18,1.1-23.18,5.12-28.55,15.37v-36.12c4.51,12.2,18.42,14.52,28.55,15.13h9.03c3.05-7.93,5.73-15.37,8.3-22.69,5.12-14.52,5.61-21.35,5.61-24.77,0-3.05-.61-5.98-1.95-8.54-1.22-2.56-4.27-3.9-9.27-3.9h-.38Z"/>
    </g>
  </g>
</svg>