<?xml version="1.0" encoding="UTF-8"?>
<svg id="Calque_1" data-name="Calque 1" xmlns="http://www.w3.org/2000/svg" viewBox="0 0 969.6 284.45">
  <defs>
    <style>
      .cls-1 {
        fill: #fff;
      }

      .cls-2 {
        fill: none;
        stroke: #fff;
        stroke-miterlimit: 10;
      }
    </style>
  </defs>
  <g>
    <path class="cls-1" d="M607.83.04h-73.74c-9.42-.13-18.15,8.18-18.61,17.54v73.15c.58,8.86,8.38,16.79,17.34,17.31h75.83c9.29-.16,17.69-9.09,17.71-18.29V18.41c-.08-9.64-8.85-18.41-18.53-18.37h0ZM554.76,76.44c-1.96.18-6.53.22-8.45,0-.2-.02-.83-.19-.83-.38V28.04s.21-.23.23-.23h9.87l.13,48.22c-.12.35-.63.38-.95.41h0ZM597.42,73.87c-.25.56-3.52,1.55-4.27,1.77-12.14,3.49-27.97,1.46-30.02-13.44-1.86-13.55,7.2-23.37,20.71-23.54.46,0,3.1.39,3.1-.07v-14.6s.21-.22.23-.22h9.65c.18.05.42.46.38.67.32,15.34-.45,30.74-.02,46.07.02.62.39,3.03.24,3.37h0ZM573.37,57.09c-.47,8.23,4.81,11.85,12.59,11.06.28-.03.87-.12.96-.4l-.14-20.21c-6.74-1.2-12.99,2.38-13.4,9.55h-.01Z"/>
    <path class="cls-1" d="M586.92,67.76c-.1.28-.68.37-.96.4-7.77.79-13.06-2.84-12.59-11.06.41-7.17,6.66-10.75,13.4-9.55l.14,20.21h.01Z"/>
  </g>
  <g>
    <path class="cls-1" d="M114.3,194.36c-.53-9.74-8.35-17.81-18.05-18.56l-74.95.03c-9.45.85-17.08,8.7-17.74,18.17v71.81c.72,9.82,8.82,17.75,18.63,18.21h73.72c9.94-.61,17.96-8.85,18.4-18.79v-70.87h-.01ZM62.24,252.14h-9.88l-.35-.11-4.01-11.51h-17.15l-3.78,11.39-.58.23c-2.73-.19-5.79.25-8.48,0-.24-.02-.64-.04-.73-.32-.15-.43.77-2.8.97-3.41,4.41-13.19,9.74-26.42,13.83-39.66.29-.95.61-1.89.73-2.88.05-.39-.07-2.12.31-2.25l12.18-.02c.31,0,.47.2.58.47l16.84,47.54c-.03.3-.11.56-.46.53h-.02ZM98.51,232.53c-.03.8-.1,2.13-.25,2.89-.1.55-.21.73-.77.85-.81.17-3.25.25-4.15.24-.71,0-1.63-.21-2.32-.21-5.2-.04-10.41.04-15.62,0,.15,1.34.61,2.72,1.3,3.88,3.01,5.01,10.99,4.48,15.91,3.3.53-.13,2.16-.79,2.48-.78.11,0,.28.11.28.17v7.68c-.14.65-2.33,1.27-2.97,1.45-4.62,1.29-10.74,1.48-15.37.18-18.11-5.08-15.31-36.48,4.12-37.53,11.46-.62,17.82,6.65,17.36,17.87h0ZM77.09,225.14c-.76.93-1.68,3.04-1.68,4.25,0,.18-.03.2.17.18,3.63-.16,7.43.22,11.04,0,.34-.02,1.99-.21,2.13-.37.39-6.41-7.78-8.79-11.65-4.06h0Z"/>
    <path class="cls-1" d="M45.23,231.31h-11.61c1.45-4.98,3.17-9.9,4.58-14.9.4-1.41.81-2.85.99-4.31l6.04,19.2h0Z"/>
  </g>
  <g>
    <path class="cls-1" d="M605.12,175.38h-68.4c-11.64,0-21.18,9.58-21.18,21.29v66.49c0,11.71,9.53,21.29,21.18,21.29h68.4c11.64,0,21.18-9.58,21.18-21.29v-66.49c0-11.71-9.53-21.29-21.18-21.29h0ZM566.42,234.94c-5.92,4.99-14.54,5.11-21.9,4.72v16.67c0,.17-.56,1.15-.73,1.15h-10.64s-.31-.29-.31-.31v-55.17c.06-.19.33-.28.52-.32,1.2-.22,3.25.06,4.6,0,8.55-.35,18.12-1.65,25.9,2.68,10.92,6.06,12,22.63,2.57,30.56v.02h-.01ZM602.5,256.03c-5.74,3.21-13.32,3.02-19.6,1.46-1.53-.18-2.67-.84-4.12-1.3-.08-.06-.39-.79-.42-.95-.27-1.52-.24-7.15-.05-8.76.03-.28.25-1.14.53-1.15.16,0,2.11,1.28,2.67,1.51,3.78,1.53,9.35,2.58,13.38,1.83,2.34-.43,3.69-2.74,1.69-4.61-1.96-1.84-6.86-3.12-9.5-4.5-4.19-2.19-8.17-5.36-8.55-10.48-1.07-13.85,14.23-16.25,24.67-13.9.76.17,3.13.88,3.5,1.51.69,1.15-.08,7.46.15,9.2-.08.28-.58.78-.89.78-.2,0-2.92-1.37-3.65-1.58-1.94-.58-5.1-1.17-7.1-1.15-7.87-.55-7.13,5.23-.47,7.25l6.28,2.59c10.01,3.96,10.79,17.12,1.49,22.25h-.01Z"/>
    <path class="cls-1" d="M559.53,226.13c-3.23,3.93-10.38,3.83-15.02,3.47v-17.52s.29-.32.31-.32c2.39,0,5.65-.26,7.93,0,.7.08,2.7.67,3.43.95,1.53.57,3.13,1.96,3.93,3.38,1.65,2.94,1.54,7.44-.59,10.03h.01Z"/>
  </g>
  <g>
    <path class="cls-1" d="M92.23,0H18.51C8.82.12.09,8.81,0,18.51v70.9c0,9.47,8.15,18.08,17.59,18.66h75.12c9.57-.16,18-8.78,18.18-18.18V18.02c-.28-9.46-8.95-18.02-18.66-18.02ZM67.87,76.15c-3.14-.23-6.67.29-9.75,0-.15-.01-.31,0-.43-.11l-4.12-11.36h-17.13c-.6,1.33-3.23,10.99-3.85,11.36-.11.06-.2.12-.33.11h-9c-.34.02-.47-.29-.48-.59l15.05-43.3.53-2.07c.14-.61,0-1.82.14-2.35.03-.11.1-.18.19-.24l12.37-.03.41.46,16.71,47.15c.17.41.25.95-.31.98h0ZM83.44,76.35l-9.78-.04-.19-.24.03-36.4.24-.19,9.4-.03c.26,0,.46.18.57.41l.03,35.81c0,.22-.06.6-.29.68h0ZM77.25,35.49c-6.1-1.06-5.91-11.29,1.26-11.48,8.37-.23,7.71,13.04-1.26,11.48Z"/>
    <polygon class="cls-1" points="50.82 55.26 39.13 55.26 44.92 36.1 50.82 55.26"/>
  </g>
  <rect class="cls-1" x="151.98" y="43.38" width="259" height="25.96" rx="12" ry="12"/>
  <rect class="cls-2" x="177.98" y="43.88" width="259" height="25" rx="12" ry="12"/>
  <rect class="cls-1" x="151.98" y="216.94" width="171.3" height="25.96" rx="12" ry="12"/>
  <rect class="cls-2" x="177.98" y="217.44" width="259" height="25" rx="12" ry="12"/>
  <rect class="cls-1" x="684.1" y="43.38" width="233.9" height="25.96" rx="12" ry="12"/>
  <rect class="cls-2" x="710.1" y="43.88" width="259" height="25" rx="12" ry="12"/>
  <rect class="cls-1" x="684.1" y="216.94" width="253.96" height="25.96" rx="12" ry="12"/>
  <rect class="cls-2" x="710.1" y="217.44" width="259" height="25" rx="12" ry="12"/>
</svg>