<?xml version="1.0" encoding="UTF-8"?>
<svg id="Calque_2" data-name="Calque 2" xmlns="http://www.w3.org/2000/svg" viewBox="0 0 623.5 508.5">
  <defs>
    <style>
      .cls-1 {
        fill: #fff;
      }

      .cls-2 {
        fill: none;
        stroke: #fff;
        stroke-miterlimit: 10;
      }
    </style>
  </defs>
  <polygon class="cls-1" points="50.8 55.3 39.1 55.3 44.9 36.1 50.8 55.3"/>
  <path class="cls-1" d="M92.2,0H18.5C8.8.1.1,8.8,0,18.5v70.9C0,98.9,8.1,107.5,17.6,108.1h75.1c9.6-.2,18-8.8,18.2-18.2V18c-.3-9.5-8.9-18-18.7-18ZM67.9,76.2c-3.1-.2-6.7.3-9.8,0-.2,0-.3,0-.4-.1l-4.1-11.4h-17.1c-.6,1.3-3.2,11-3.8,11.4-.1,0-.2.1-.3.1h-9c-.3,0-.5-.3-.5-.6l15-43.3.5-2.1c.1-.6,0-1.8.1-2.4,0-.1,0-.2.2-.2h12.4l.4.4,16.7,47.2c.2.4.2.9-.3,1h0ZM83.4,76.3h-9.8l-.2-.3v-36.4l.3-.2h9.4c.3,0,.5.2.6.4v35.8c0,.2,0,.6-.3.7h0ZM77.2,35.5c-6.1-1.1-5.9-11.3,1.3-11.5,8.4-.2,7.7,13-1.3,11.5Z"/>
  <g>
    <rect class="cls-1" x="148.4" y="26.5" width="427.6" height="42.9" rx="21.4" ry="21.4"/>
    <rect class="cls-2" x="191.4" y="27.3" width="427.6" height="41.3" rx="20.6" ry="20.6"/>
  </g>
  <g>
    <path class="cls-1" d="M110.7,149.4c-.5-9.7-8.3-17.8-18.1-18.6H17.7C8.3,131.7.6,139.5,0,149v71.8c.7,9.8,8.8,17.8,18.6,18.2h73.7c9.9-.6,18-8.9,18.4-18.8v-70.9h0v.1ZM58.7,207.1h-10.2c0-.1-4-11.6-4-11.6h-17.1l-3.8,11.4-.6.2c-2.7-.2-5.8.2-8.5,0-.2,0-.6,0-.7-.3-.1-.4.8-2.8,1-3.4,4.4-13.2,9.7-26.4,13.8-39.7.3-.9.6-1.9.7-2.9,0-.4,0-2.1.3-2.2h12.2c.3,0,.5.2.6.4l16.8,47.5c0,.3-.1.6-.5.5h0v.1ZM94.9,187.5c0,.8,0,2.1-.2,2.9,0,.6-.2.7-.8.9-.8.2-3.2.2-4.2.2-.7,0-1.6-.2-2.3-.2h-15.6c.2,1.3.6,2.7,1.3,3.9,3,5,11,4.5,15.9,3.3.5-.1,2.2-.8,2.5-.8.1,0,.3.1.3.2v7.7c-.1.6-2.3,1.3-3,1.4-4.6,1.3-10.7,1.5-15.4.2-18.1-5.1-15.3-36.5,4.1-37.5,11.5-.6,17.8,6.6,17.4,17.9h0v-.1ZM73.5,180.1c-.8.9-1.7,3-1.7,4.2s0,.2.2.2c3.6-.2,7.4.2,11,0,.3,0,2-.2,2.1-.4.4-6.4-7.8-8.8-11.7-4.1h0l.1.1Z"/>
    <path class="cls-1" d="M41.7,186.3h-11.6c1.5-5,3.2-9.9,4.6-14.9.4-1.4.8-2.9,1-4.3l6,19.2h0Z"/>
  </g>
  <g>
    <path class="cls-1" d="M170,154.7h242c11.93,0,21.6,9.67,21.6,21.6h0c0,11.93-9.67,21.6-21.6,21.6h-242c-11.93,0-21.6-9.67-21.6-21.6h0c0-11.93,9.67-21.6,21.6-21.6Z"/>
    <path class="cls-2" d="M212.5,155.5h389.7c11.49,0,20.8,9.31,20.8,20.8h0c0,11.49-9.31,20.8-20.8,20.8H212.5c-11.49,0-20.8-9.31-20.8-20.8h0c0-11.49,9.31-20.8,20.8-20.8Z"/>
  </g>
  <g>
    <path class="cls-1" d="M92.3,263H18.6c-9.4-.1-18.2,8.2-18.6,17.5v73.2c.6,8.9,8.4,16.8,17.3,17.3h75.8c9.3-.2,17.7-9.1,17.7-18.3v-71.3c0-9.6-8.8-18.4-18.5-18.4h0ZM39.3,339.4c-2,.2-6.5.2-8.5,0-.2,0-.8-.2-.8-.4v-48l.2-.2h9.9v48.2c0,.3-.5.4-.8.4h0ZM81.9,336.9c-.2.6-3.5,1.6-4.3,1.8-12.1,3.5-28,1.5-30-13.4-1.9-13.5,7.2-23.4,20.7-23.5.5,0,3.1.4,3.1,0v-14.6l.2-.2h9.7c.2,0,.4.5.4.7.3,15.3-.5,30.7,0,46.1,0,.6.4,3,.2,3.4h0v-.3ZM57.9,320.1c-.5,8.2,4.8,11.9,12.6,11.1.3,0,.9-.1,1-.4v-20.2c-6.9-1.2-13.1,2.4-13.5,9.5h-.1Z"/>
    <path class="cls-1" d="M71.4,330.8c0,.3-.7.4-1,.4-7.8.8-13.1-2.8-12.6-11.1.4-7.2,6.7-10.8,13.4-9.5v20.2h.2Z"/>
  </g>
  <g>
    <rect class="cls-1" x="150.4" y="289.5" width="386.2" height="42.9" rx="21.4" ry="21.4"/>
    <rect class="cls-2" x="193.4" y="290.3" width="427.6" height="41.3" rx="20.6" ry="20.6"/>
  </g>
  <g>
    <path class="cls-1" d="M89.6,399.4H21.2C9.6,399.4,0,409,0,420.7v66.5C0,498.9,9.5,508.5,21.2,508.5h68.4c11.6,0,21.2-9.6,21.2-21.3v-66.5c0-11.7-9.5-21.3-21.2-21.3h0ZM50.9,458.9c-5.9,5-14.5,5.1-21.9,4.7v16.7c0,.2-.6,1.1-.7,1.1h-10.6l-.3-.3v-55.2c0-.2.3-.3.5-.3,1.2-.2,3.2,0,4.6,0,8.5-.4,18.1-1.6,25.9,2.7,10.9,6.1,12,22.6,2.6,30.6h-.1ZM87,480c-5.7,3.2-13.3,3-19.6,1.5-1.5-.2-2.7-.8-4.1-1.3,0,0-.4-.8-.4-.9-.3-1.5-.2-7.1,0-8.8,0-.3.2-1.1.5-1.1.2,0,2.1,1.3,2.7,1.5,3.8,1.5,9.3,2.6,13.4,1.8,2.3-.4,3.7-2.7,1.7-4.6-2-1.8-6.9-3.1-9.5-4.5-4.2-2.2-8.2-5.4-8.5-10.5-1.1-13.9,14.2-16.2,24.7-13.9.8.2,3.1.9,3.5,1.5.7,1.1,0,7.5.2,9.2,0,.3-.6.8-.9.8s-2.9-1.4-3.7-1.6c-1.9-.6-5.1-1.2-7.1-1.1-7.9-.6-7.1,5.2-.5,7.2l6.3,2.6c10,4,10.8,17.1,1.5,22.3h0l-.2-.1Z"/>
    <path class="cls-1" d="M44,450.1c-3.2,3.9-10.4,3.8-15,3.5v-17.5l.3-.3c2.4,0,5.7-.3,7.9,0,.7,0,2.7.7,3.4.9,1.5.6,3.1,2,3.9,3.4,1.7,2.9,1.5,7.4-.6,10h.1Z"/>
  </g>
  <g>
    <rect class="cls-1" x="151.4" y="424.4" width="415.8" height="42.5" rx="21.2" ry="21.2"/>
    <path class="cls-2" d="M214.5,425.2h383c11.32,0,20.5,9.16,20.5,20.45h0c0,11.29-9.18,20.45-20.5,20.45H214.5c-11.32,0-20.5-9.16-20.5-20.45h0c0-11.29,9.18-20.45,20.5-20.45Z"/>
  </g>
</svg>